<?xml version="1.0" encoding="UTF-8"?>
<svg width="16px" height="16px" viewBox="0 0 16 16" version="1.1" xmlns="http://www.w3.org/2000/svg" xmlns:xlink="http://www.w3.org/1999/xlink">
    <title>icon/智能匹配</title>
    <g id="icon/智能匹配" stroke="none" fill="none">
        <rect id="矩形" x="0" y="0" width="16" height="16"></rect>
        <rect id="矩形备份" opacity="0.521767753" x="1" y="1" width="14" height="14"></rect>
        <g id="编组-14" stroke-width="1" fill-rule="evenodd" transform="translate(-0.0147, -0.0147)">
            <rect id="矩形备份" opacity="0.521767753" x="0" y="4.4408921e-16" width="16" height="16"></rect>
            <path d="M8.01409785,2.95433966 C10.3325299,1.56454322 12.5641587,1.2504502 13.6715729,2.35786438 C14.7788278,3.46511935 14.4649843,5.69626571 13.0756969,8.01433951 C14.464894,10.3325299 14.7789871,12.5641587 13.6715729,13.6715729 C12.5641587,14.7789871 10.3325299,14.464894 8.01409785,13.0750976 C5.69626571,14.4649843 3.46511935,14.7788278 2.35786438,13.6715729 C1.2504502,12.5641587 1.56454322,10.3325299 2.95433966,8.01409785 C1.56445294,5.69626571 1.2506094,3.46511935 2.35786438,2.35786438 C3.45843283,1.25729592 5.66935971,1.56071427 7.97235395,2.92868909 Z M3.57083391,8.95032553 C2.60522429,10.7266393 2.39974141,12.2992364 3.06497116,12.9644661 C3.7302009,13.6296958 5.30279793,13.424213 7.07911172,12.4586033 C6.43679773,11.9963727 5.79858519,11.4554394 5.1862915,10.8431458 C4.61825617,10.2751104 4.11163784,9.68476779 3.6722701,9.08961863 Z M12.4593605,8.9494247 C11.9969353,9.59197574 11.4557578,10.2305337 10.8431458,10.8431458 C10.2305337,11.4557578 9.59197574,11.9969353 8.9494247,12.4593605 C10.7260521,13.4241362 12.2991121,13.62982 12.9644661,12.9644661 C13.6202564,12.3086758 13.4298691,10.771086 12.499249,9.02581651 Z M8.01414491,4.13941119 C7.30588142,4.61470966 6.58527248,5.20152409 5.89339828,5.89339828 C5.20152409,6.58527248 4.61470966,7.30588142 4.13941119,8.01414491 C4.61415739,8.7228776 5.2011985,9.44383918 5.89339828,10.136039 C6.58527248,10.8279132 7.30588142,11.4147276 8.01414491,11.8900261 C8.7228776,11.4152799 9.44383918,10.8282388 10.136039,10.136039 C10.8282388,9.44383918 11.4152799,8.7228776 11.890697,8.01429245 C11.4147276,7.30588142 10.8279132,6.58527248 10.136039,5.89339828 C9.47672356,5.23408287 8.79131421,4.67017192 8.11536022,4.20725235 Z M8.01471863,6.51471863 C8.84314575,6.51471863 9.51471863,7.1862915 9.51471863,8.01471863 C9.51471863,8.84314575 8.84314575,9.51471863 8.01471863,9.51471863 C7.1862915,9.51471863 6.51471863,8.84314575 6.51471863,8.01471863 C6.51471863,7.1862915 7.1862915,6.51471863 8.01471863,6.51471863 Z M12.9644661,3.06497116 C12.2992364,2.39974141 10.7266393,2.60522429 8.95032553,3.57083391 C9.59263952,4.03306455 10.2308521,4.57399781 10.8431458,5.1862915 C11.4554394,5.79858519 11.9963727,6.43679773 12.4586394,7.07901066 C13.424213,5.30279793 13.6296958,3.7302009 12.9644661,3.06497116 Z M7.00362074,3.53018826 C5.25835128,2.59956813 3.72076149,2.40918082 3.06497116,3.06497116 C2.39986562,3.7300767 2.60514759,5.30221073 3.57029313,7.0781168 C4.03362717,6.43613397 4.57431621,5.79826679 5.1862915,5.1862915 C5.79826679,4.57431621 6.43613397,4.03362717 7.07800877,3.57151912 Z" id="形状结合" fill-opacity="0.7" fill="#000000"></path>
        </g>
    </g>
</svg>