<?xml version="1.0" encoding="UTF-8"?>
<svg width="24px" height="24px" viewBox="0 0 24 24" version="1.1" xmlns="http://www.w3.org/2000/svg" xmlns:xlink="http://www.w3.org/1999/xlink">
    <title>图标/app</title>
    <g id="图标/app" stroke="none" fill="none" fill-rule="nonzero">
        <path d="M12,4.28867513 L18.3612159,7.96132487 C18.670617,8.13995766 18.8612159,8.47008468 18.8612159,8.82735027 L18.8612159,16.1726497 C18.8612159,16.5299153 18.670617,16.8600423 18.3612159,17.0386751 L12,20.7113249 C11.6905989,20.8899577 11.3094011,20.8899577 11,20.7113249 L4.63878407,17.0386751 C4.32938299,16.8600423 4.13878407,16.5299153 4.13878407,16.1726497 L4.13878407,8.82735027 C4.13878407,8.47008468 4.32938299,8.13995766 4.63878407,7.96132487 L11,4.28867513 C11.3094011,4.11004234 11.6905989,4.11004234 12,4.28867513 Z M15.9,8.7 C15.7343146,8.4790861 15.4209139,8.43431458 15.2,8.6 L11.5,11.375 L7.8,8.6 C7.5790861,8.43431458 7.26568542,8.4790861 7.1,8.7 C6.93431458,8.9209139 6.9790861,9.23431458 7.2,9.4 L11.0481415,12.2856617 C11.017273,12.3506219 11,12.4232938 11,12.5 L11,17.5 C11,17.7761424 11.2238576,18 11.5,18 C11.7761424,18 12,17.7761424 12,17.5 L12,12.5 C12,12.4236871 11.9829037,12.3513673 11.9523323,12.2866617 L15.8,9.4 C16.0209139,9.23431458 16.0656854,8.9209139 15.9,8.7 Z" id="形状结合" fill="#000000"></path>
    </g>
</svg>