<?xml version="1.0" encoding="UTF-8"?>
<svg width="24px" height="24px" viewBox="0 0 24 24" version="1.1" xmlns="http://www.w3.org/2000/svg" xmlns:xlink="http://www.w3.org/1999/xlink">
    <title>图标/music</title>
    <g id="图标/music" stroke="none" fill="none" fill-rule="nonzero">
        <path d="M11.4802643,5.70962101 L18.5773437,8.00020086 C18.909041,8.10773342 19.0857395,8.4860407 18.9586406,8.82612859 L15.3273264,18.528676 L15.3000466,18.5869768 L15.2901267,18.6005803 L15.2901268,18.6005801 C14.7249506,19.8291033 13.3135904,20.3463139 12.1377798,19.755805 C10.9619632,19.1652945 10.4669421,17.6906694 11.0321167,16.4621525 C11.5972929,15.2336293 13.0086531,14.7164186 14.1844637,15.3069276 C14.4985571,15.4646692 14.7753539,15.693069 14.9950086,15.9757512 L16.7706673,11.2326607 L16.7706673,11.2326607 C16.8910927,10.911165 16.7392741,10.5485406 16.4315713,10.4227173 C16.4209239,10.4183634 16.4101592,10.4143294 16.3992905,10.4106201 L11.6550885,8.79180237 L11.6550885,8.79180236 C11.3509883,8.68823481 11.0227089,8.85288406 10.909855,9.16557482 L8.61215034,15.5164757 L8.61215034,15.5164757 C8.21482384,16.8147957 6.88538288,17.53075 5.64275937,17.1156195 C4.66421341,16.788704 4,15.8384474 4,14.7650371 L4,14.7648096 C4,13.4020921 5.0573062,12.2973853 6.36156592,12.2973853 C7.06245377,12.2973852 7.72712884,12.6226702 8.17580775,13.185256 L10.7430648,6.08663304 L10.7430648,6.08663306 C10.8550605,5.77705724 11.1782207,5.6119223 11.4808587,5.70962166 L11.4802643,5.70962101 Z M7.41185063,4.31428962 L7.63814876,4.82992827 L7.63814878,4.82992831 C7.75661609,5.09905543 7.64384159,5.41756836 7.38626073,5.54134682 C7.36835353,5.54995189 7.34998694,5.55747221 7.33125192,5.56387068 L6.06956236,5.99918286 L6.06956238,5.99918285 C5.95633884,6.03798978 5.89466207,6.16534893 5.93180455,6.28364746 C5.93316584,6.28798323 5.93465281,6.29227481 5.93626342,6.29651628 L7.00451489,9.14547984 L7.00451485,9.14547978 C7.4667728,9.83102636 7.30960652,10.7783097 6.65347152,11.261287 C5.99733651,11.7442659 5.09069391,11.5800545 4.62843748,10.8945079 C4.16617954,10.2089614 4.32334582,9.26167806 4.97948082,8.77870075 C5.22449535,8.59834694 5.5168859,8.50155221 5.81659953,8.50158068 L5.81163957,8.50158068 L4.60947012,5.35333219 L4.6094701,5.35333214 C4.49973933,5.06781583 4.63231198,4.74341652 4.90557971,4.62876654 C4.91969923,4.6228427 4.93405497,4.61755302 4.94860745,4.61291207 L6.79619519,4.02342639 C7.04233285,3.94504423 7.30459099,4.06877145 7.4118504,4.31363504 L7.41185063,4.31428962 Z" id="形状" fill="#000000"></path>
    </g>
</svg>