<?xml version="1.0" encoding="UTF-8"?>
<svg width="24px" height="24px" viewBox="0 0 24 24" version="1.1" xmlns="http://www.w3.org/2000/svg" xmlns:xlink="http://www.w3.org/1999/xlink">
    <title>图标/best</title>
    <g id="图标/best" stroke="none" fill="none" fill-rule="nonzero">
        <path d="M11.2823115,4.00021055 C12.5085295,4.00021055 13.6724122,4.27354927 14.7194708,4.76430634 L13.4051987,6.04510626 C13.081905,6.3767665 12.9534371,6.85905644 13.0673676,7.31338003 L13.0913427,7.39748426 L13.2892464,8.02960801 C12.660019,7.73184966 11.9752077,7.57813083 11.2823115,7.57911358 C8.63415138,7.57911358 6.48728904,9.78237577 6.48728904,12.5001053 C6.48728904,15.2178348 8.63415138,17.421097 11.2823115,17.421097 C13.9304716,17.421097 16.077334,15.2178348 16.077334,12.5001053 C16.077334,11.8961654 15.9714076,11.3172778 15.7769912,10.7822318 L16.89118,11.1065699 C17.3310144,11.2573312 17.7455659,10.9477561 18.0820893,10.6126813 L18.13745,10.5563136 L19.0615816,9.57524677 C19.395551,10.5122554 19.5658408,11.5023796 19.5646295,12.5001053 C19.5646295,17.194284 15.856327,21 11.2823115,21 C6.70829601,21 3,17.194284 3,12.5001053 C3,7.80592656 6.70829599,4.00021055 11.2823115,4.00021055 Z M11.2823115,8.92120222 C11.8402778,8.92120222 12.3672943,9.05541109 12.8350269,9.29475024 L10.6977547,11.5968796 C10.3193838,11.9851906 10.4379516,12.8687323 10.9165821,13.3348844 C11.3760324,13.7822473 12.3411396,13.7393004 12.7522038,13.3912521 L12.80059,13.3465159 L14.634904,11.5114333 C15.0491933,12.9906288 14.4955895,14.57601 13.2601235,15.4484569 C12.0246575,16.3209037 10.3840309,16.2850184 9.18590744,15.3593417 C7.98778395,14.433665 7.50050171,12.8255165 7.97582517,11.3657795 C8.45114863,9.9060424 9.78262178,8.92164729 11.2823115,8.92120222 L11.2823115,8.92120222 Z M17.1784455,4.12770897 C17.2250357,4.17558117 17.2601102,4.23394059 17.2808846,4.29815423 L17.8868011,6.17036788 L19.7097814,6.79130755 C19.8491647,6.83891262 19.9546216,6.95714568 19.9885345,7.10383182 C20.0224473,7.25051795 19.979987,7.4047689 19.8762995,7.51156179 L17.4242994,10.0284254 C17.1970927,10.2617719 16.8608447,10.3431918 16.5559644,10.2386859 L15.2560774,9.79221775 L12.3677302,12.7564442 C12.2080909,12.9263143 11.9715335,12.9945129 11.7490532,12.9348066 C11.526573,12.8751003 11.3528269,12.6967897 11.2946489,12.4684647 C11.236471,12.2401398 11.3029239,11.9973678 11.4684456,11.8335346 L14.35069,8.87557121 L13.9191379,7.53348257 C13.8190815,7.22140387 13.8988332,6.87809688 14.1253239,6.64591462 L16.5790677,4.12726159 C16.7446538,3.95757947 17.0128594,3.95757947 17.1784455,4.12726159 L17.1784455,4.12770897 Z" id="形状" fill="#000000"></path>
    </g>
</svg>