<?xml version="1.0" encoding="UTF-8"?>
<svg width="24px" height="24px" viewBox="0 0 24 24" version="1.1" xmlns="http://www.w3.org/2000/svg" xmlns:xlink="http://www.w3.org/1999/xlink">
    <title>图标/document</title>
    <g id="图标/document" stroke="none" fill="none" fill-rule="nonzero">
        <path d="M17.25,4 C18.2164983,4 19,4.76111593 19,5.7 L19,16.75 L14.625,21 L6.75,21 C5.78350169,21 5,20.2388841 5,19.3 L5,5.7 C5,4.76111593 5.78350169,4 6.75,4 L17.25,4 Z M18,16 L14,16 L14,20 C14,19.9568501 14.0142193,19.9417476 14.0590648,19.8985976 L17.9223407,16.0582524 C17.9551545,16.0237325 17.9704676,16 18,16 Z M7.85131288,13 L7,16 L10,15.1846253 L7.85131288,13 Z M13.2630191,7 L8,12.2651555 L10.7348715,15 L16,9.73484449 L13.2630191,7 Z" id="形状" fill="#000000"></path>
    </g>
</svg>