<?xml version="1.0" encoding="UTF-8"?>
<svg width="24px" height="24px" viewBox="0 0 24 24" version="1.1" xmlns="http://www.w3.org/2000/svg" xmlns:xlink="http://www.w3.org/1999/xlink">
    <title>图标/experience</title>
    <g id="图标/experience" stroke="none" fill="none" fill-rule="nonzero">
        <path d="M18.84,5 C18.9885684,5 19.0628525,5 19.125581,5.00394654 C20.131242,5.06721737 20.9327826,5.86875796 20.9960535,6.87441896 C21,6.93714747 21,7.01143165 21,7.16 L21,15.84 C21,15.9885684 21,16.0628525 20.9960535,16.125581 C20.9327826,17.131242 20.131242,17.9327826 19.125581,17.9960535 C19.0628525,18 18.9885684,18 18.84,18 L14.25,18 L15,19 L16.46,19 C16.4971421,19 16.5157131,19 16.5313953,19.0009866 C16.7948264,19.0175603 17,19.236048 17,19.5 C17,19.763952 16.7948264,19.9824397 16.5313953,19.9990134 C16.5157131,20 16.4971421,20 16.46,20 L7.54,20 C7.50285791,20 7.48428687,20 7.46860474,19.9990134 C7.20517358,19.9824397 7,19.763952 7,19.5 C7,19.236048 7.20517358,19.0175603 7.46860474,19.0009866 C7.48428687,19 7.50285791,19 7.54,19 L9,19 L9.75,18 L5.16,18 C5.01143165,18 4.93714747,18 4.87441896,17.9960535 C3.86875796,17.9327826 3.06721737,17.131242 3.00394654,16.125581 C3,16.0628525 3,15.9885684 3,15.84 L3,7.16 C3,7.01143165 3,6.93714747 3.00394654,6.87441896 C3.06721737,5.86875796 3.86875796,5.06721737 4.87441896,5.00394654 C4.93714747,5 5.01143165,5 5.16,5 L18.84,5 Z M16.9730762,9.66746825 C16.1446491,8.23259037 14.3098779,7.74096491 12.875,8.56939203 C11.4401221,9.39781916 10.9484967,11.2325904 11.7769238,12.6674682 C12.5202243,13.9549025 14.0736773,14.482976 15.4215276,13.9795179 L16.4219873,15.7129542 C16.4405583,15.7451202 16.4498439,15.7612032 16.4585394,15.774291 C16.6046082,15.9941423 16.8964109,16.062584 17.125,15.930608 C17.3535891,15.798632 17.4402182,15.5117026 17.3228559,15.2752777 C17.3158693,15.2612032 17.3065837,15.2451202 17.2880127,15.2129542 L16.2878176,13.4791731 C17.3971239,12.5635198 17.7162037,10.9546028 16.9730762,9.66746825 Z M6,13 L6,14 L11,14 L11,13 L6,13 Z M13.275,9.26221236 C14.3272438,8.65469913 15.6727427,9.01522447 16.2802559,10.0674682 C16.8877691,11.119712 16.5272438,12.4652109 15.475,13.0727241 C14.4227562,13.6802374 13.0772573,13.319712 12.4697441,12.2674682 C11.8622309,11.2152245 12.2227562,9.86972558 13.275,9.26221236 Z M6,10 L6,11 L10,11 L10,10 L6,10 Z" id="形状结合" fill="#000000"></path>
    </g>
</svg>