<?xml version="1.0" encoding="UTF-8"?>
<svg width="24px" height="24px" viewBox="0 0 24 24" version="1.1" xmlns="http://www.w3.org/2000/svg" xmlns:xlink="http://www.w3.org/1999/xlink">
    <title>图标/file</title>
    <g id="图标/file" stroke="none" fill="none" fill-rule="evenodd" stroke-width="1">
        <g id="文档" transform="translate(4, 4)" fill="#000000">
            <path d="M9.37499583,0 L2.87499688,0 C1.83905883,0 1.00938147,0.805496559 1.00938147,1.79999757 L1,15.2000024 C1,16.1945034 1.82969849,17 2.86561542,17 L13.1250034,17 C14.1609415,17 15,16.1945034 15,15.2000024 L15,5.4000292 L9.37500607,0 L9.37499583,0 Z M5,10.0000162 L5,9.00001622 L11,9.00001622 L11,10.0000162 L5,10.0000162 Z M5,13.0000162 L5,12.0000162 L11,12.0000162 L11,13.0000162 L5,13.0000162 Z M8.40535446,6.00573905 L8.43750599,1.3500144 L13.5615866,6.00573905 L8.40535446,6.00573905 Z" id="形状" fill-rule="nonzero"></path>
        </g>
    </g>
</svg>