<?xml version="1.0" encoding="UTF-8"?>
<svg width="24px" height="24px" viewBox="0 0 24 24" version="1.1" xmlns="http://www.w3.org/2000/svg" xmlns:xlink="http://www.w3.org/1999/xlink">
    <title>图标/folder</title>
    <g id="图标/folder" stroke="none" fill="none" fill-rule="nonzero">
        <path d="M8.65249755,5 C8.8837747,5 9.10507279,5.08620846 9.26534821,5.23877839 L10.3992472,6.31677839 C10.5593176,6.46915303 10.7802648,6.55535803 11.0112469,6.55555673 L18.3000013,6.55555673 C19.238885,6.55555669 20,7.25200204 20,8.11111168 L20,17.4444451 C20,18.3035547 19.238885,19 18.3000012,19 L4.69999889,19 C3.76111499,19 3,18.3035547 3,17.4444451 L3,6.55556222 C3,5.69645282 3.76111499,5 4.69999879,5 L8.65249755,5 Z M17,10 L6,10 L6,11 L17,11 L17,10 Z" id="形状结合" fill="#000000"></path>
    </g>
</svg>