<?xml version="1.0" encoding="UTF-8"?>
<svg width="24px" height="24px" viewBox="0 0 24 24" version="1.1" xmlns="http://www.w3.org/2000/svg" xmlns:xlink="http://www.w3.org/1999/xlink">
    <title>图标/picture</title>
    <g id="图标/picture" stroke="none" fill="none" fill-rule="nonzero">
        <path d="M13.185004,15.2167358 L10.1111966,10.4138489 L10.1111966,10.4138489 C9.93771019,10.1423804 9.56819883,10.0575402 9.28587182,10.2243537 C9.20562224,10.2717695 9.13810935,10.3366858 9.08879697,10.4138489 L5.36279931,16.2361594 L5.36279933,16.2361593 C5.18916103,16.5075387 5.2771956,16.862882 5.55943008,17.0298445 C5.65403043,17.0858068 5.76292895,17.1153916 5.87399957,17.1153916 L18.1404012,17.1153916 L18.1404012,17.1153916 C18.4717726,17.1151399 18.740189,16.8566385 18.7399276,16.5380121 C18.7399276,16.4337162 18.710354,16.3313931 18.6546016,16.2419287 L16.1142041,12.1705897 L16.1142041,12.1705897 C15.9434433,11.8975283 15.5748007,11.8092725 15.2908143,11.9734645 C15.2067462,12.0220707 15.1363547,12.0897549 15.0858043,12.1705897 L13.1850055,15.216745 L13.185004,15.2167358 Z M5,5 L19,5 C20.1045695,5 21,5.8954305 21,7 L21,17 C21,18.1045695 20.1045695,19 19,19 L5,19 C3.8954305,19 3,18.1045695 3,17 L3,7 C3,5.8954305 3.8954305,5 5,5 Z M16.2000021,9.61539598 L16.2000021,9.61539598 C16.862742,9.61549355 17.4000839,9.09897747 17.4001851,8.46172686 C17.4002866,7.82447626 16.8631104,7.30780084 16.2003705,7.30770347 L16.2000031,7.30770347 L16.2000031,7.30770347 C15.5372632,7.30780105 15.0000873,7.82447356 15.0001885,8.46172686 C15.00029,9.09883954 15.5374066,9.61529862 16.2000031,9.61539598 L16.2000021,9.61539598 Z" id="形状" fill="#000000"></path>
    </g>
</svg>