<?xml version="1.0" encoding="UTF-8"?>
<svg width="24px" height="24px" viewBox="0 0 24 24" version="1.1" xmlns="http://www.w3.org/2000/svg" xmlns:xlink="http://www.w3.org/1999/xlink">
    <title>图标/set</title>
    <g id="图标/set" stroke="none" fill="none" fill-rule="nonzero">
        <path d="M19.8328802,9.95210486 C19.8403205,9.98867607 20,10.8376907 20,11.5066625 C20,12.1891376 19.8351696,13.0522181 19.8328802,13.0606576 C19.7390185,13.5501491 19.4368293,13.8680373 19.0499356,13.8680373 L18.9824009,13.8680373 C17.9018458,13.8680373 17.024467,14.7395574 17.024467,15.8119377 C17.024467,16.157395 17.1933038,16.5506761 17.1950207,16.5540519 C17.3884676,16.9855922 17.23909,17.5144681 16.8230076,17.8008488 L14.7803692,18.9188025 L14.7803692,18.9188025 C14.3537416,19.0903445 13.8636572,18.9846254 13.5492918,18.6532393 C13.3272285,18.412432 12.5580198,17.7226427 11.9570754,17.7226427 C11.403062,17.7226427 10.6533124,18.337039 10.3763056,18.6357977 C10.1788525,18.8490359 9.87322938,18.9761912 9.5624553,18.9761912 C9.41365004,18.9761912 9.27285736,18.9480595 9.11832882,18.8805434 L7.14952069,17.7850951 L7.14952068,17.7850951 C6.75636894,17.5034036 6.61343003,16.9919869 6.80497925,16.552364 C6.80669624,16.5489882 6.97553298,16.1590829 6.97553298,15.8119377 C6.97553298,14.7412453 6.09815424,13.8680373 5.01817141,13.8680373 L4.93632852,13.8680373 C4.5631707,13.8680373 4.26098154,13.551837 4.16711976,13.0606576 C4.1596795,13.0240864 4,12.1716959 4,11.5066625 C4,10.8393786 4.16025182,9.98755078 4.16711976,9.95210484 C4.26098154,9.46148801 4.56145371,9.14528772 4.9483474,9.14528772 L5.0158821,9.14528772 C6.09643726,9.14528772 6.973816,8.27320505 6.973816,7.20138733 C6.973816,6.85030373 6.80497925,6.46264892 6.80326227,6.45871048 C6.60981542,6.02773285 6.75919302,5.49660638 7.17642009,5.21022568 L9.25683216,4.08045666 C9.38503362,4.02588116 9.52353699,4 9.66890828,4 C9.98025469,4 10.2835885,4.12377947 10.4827586,4.33364195 C10.7013879,4.56038344 11.4562885,5.21022568 12.0394906,5.21022568 C12.6163972,5.21022568 13.3678638,4.57444929 13.5847761,4.3510836 C13.7839462,4.14684747 14.085563,4.02475589 14.3929031,4.02475589 C14.5422807,4.02475589 14.6847904,4.05232496 14.8393189,4.11871577 L16.846473,5.22935524 C17.237373,5.49998218 17.3867506,6.02942075 17.1933038,6.46264892 C17.1915868,6.46602472 17.02275,6.85536743 17.02275,7.20307523 C17.02275,8.27376769 17.9018458,9.14697562 18.9801116,9.14697562 L19.0619545,9.14697562 C19.4368293,9.14528772 19.7390185,9.46148801 19.8328802,9.95210484 L19.8328802,9.95210486 Z M14.8370296,11.7193382 C14.8370296,10.1687189 13.5653169,8.9078562 12.0040063,8.9078562 C10.441551,8.9078562 9.16983832,10.1681563 9.16983832,11.7193382 C9.16983832,13.2705201 10.4404064,14.5313828 12.003434,14.5313828 C13.5670339,14.5313828 14.8370296,13.2705201 14.8370296,11.7193382 Z" id="形状" fill="#000000"></path>
    </g>
</svg>