<?xml version="1.0" encoding="UTF-8"?>
<svg width="24px" height="24px" viewBox="0 0 24 24" version="1.1" xmlns="http://www.w3.org/2000/svg" xmlns:xlink="http://www.w3.org/1999/xlink">
    <title>图标/video</title>
    <g id="图标/video" stroke="none" fill="none" fill-rule="nonzero">
        <path d="M18,5 C19.1045695,5 20,5.8954305 20,7 L20,17 C20,18.1045695 19.1045695,19 18,19 L5,19 C3.8954305,19 3,18.1045695 3,17 L3,7 C3,5.8954305 3.8954305,5 5,5 L18,5 Z M10,11 L10,15 C10,15.4120227 10.4703819,15.6472136 10.8,15.4 L13.4666667,13.4 C13.7333333,13.2 13.7333333,12.8 13.4666667,12.6 L10.8,10.6 C10.4703819,10.3527864 10,10.5879773 10,11 Z M5.767,5.999 L5,6 C4.44771525,6 4,6.44771525 4,7 L4,8 L6.921,7.999 L5.767,5.999 Z M16.077,5.999 L17.231,7.999 L19,8 L19,7 C19,6.44771525 18.5522847,6 18,6 L16.077,5.999 Z M8.077,5.999 L9.231,7.999 L10.921,7.999 L9.767,5.999 L8.077,5.999 Z M12.077,5.999 L13.231,7.999 L14.921,7.999 L13.767,5.999 L12.077,5.999 Z" id="形状结合" fill="#000000"></path>
    </g>
</svg>