<?xml version="1.0" encoding="UTF-8"?>
<svg width="24px" height="24px" viewBox="0 0 24 24" version="1.1" xmlns="http://www.w3.org/2000/svg" xmlns:xlink="http://www.w3.org/1999/xlink">
    <title>图标/web</title>
    <g id="图标/web" stroke="none" fill="none" fill-rule="nonzero">
        <path d="M12.5,4 L12.5,4 C7.80557617,4 4,7.80557617 4,12.5 C4,17.1944238 7.80557617,21 12.5,21 C17.1944238,21 21,17.1944238 21,12.5 L21,12.5 C21,7.80557654 17.1944238,4 12.5,4 L12.5,4 Z M5.13331259,12.5 L5.13331259,12.5000687 C5.13617253,10.7887963 5.73755797,9.13242517 6.83328932,7.81796325 L6.83328933,7.81796327 C6.95840767,7.9601862 7.04175681,8.13423964 7.07412322,8.32087938 C7.16620661,8.7812955 6.84037322,10.3042182 7.25120711,10.6442182 C7.88162322,11.1542182 8.85912322,10.7221349 9.37620711,11.0338021 C9.89329099,11.3454682 11.0833292,12.7975023 11.6145792,12.499999 C12.4433292,12.0041651 11.0195792,10.0420879 10.9629131,9.51083788 C10.8708297,8.72458788 11.3666631,7.80374901 12.2733292,8.13667176 C12.8399953,8.34917176 12.9816631,9.10000565 13.4916631,9.13542176 C14.0016631,9.17083838 13.7749969,7.49917176 13.7749969,7.23001063 C13.7749969,6.47917675 14.4833308,5.94084452 15.2979131,5.6716767 L15.297913,5.6716767 C19.0607733,7.20847836 20.8653465,11.5047021 19.3285399,15.2675624 C19.2395814,15.4853766 19.14023,15.6988013 19.0308257,15.9070978 C18.9670757,15.2483478 18.8112419,14.4904317 18.4074919,14.2850139 C17.6283257,13.8458478 16.7570757,14.2850139 16.1337419,13.57668 C15.871658,13.2862639 16.1974919,11.9970961 15.425408,11.6925189 C13.9024919,11.090435 12.6699968,12.3300189 12.2945691,13.3287689 L12.2945691,13.3287689 C12.1337868,13.7827154 12.0875576,14.2693337 12.1599857,14.745435 C12.1599857,16.3462689 11.3454018,16.3462689 11.6641518,16.9908461 C11.9829018,17.63543 13.2083179,17.4583461 12.9745679,18.9245961 L12.9745679,18.9245962 C12.9418001,19.1415172 12.837014,19.3411095 12.6770679,19.4912623 L12.2379018,19.7604284 L11.9829018,19.838345 L11.9829015,19.838345 C8.13011044,19.5637817 5.14209481,16.3625755 5.13331259,12.5000061 L5.13331259,12.5 Z" id="形状" fill="#000000"></path>
    </g>
</svg>